<?xml version="1.0" encoding="UTF-8"?>
<svg id="uuid-fc0ffda3-1f24-4f8d-8bbb-9951248a6cf1" data-name="Layer 1" xmlns="http://www.w3.org/2000/svg" viewBox="0 0 501 501">
  <defs>
    <style>
      .uuid-6f2fed90-299f-4f08-9450-e6ce82d80e1f, .uuid-155ee6de-0c81-40f5-8dfc-f712f57392cb, .uuid-deed4b06-ee55-41a4-b0b7-1adde8bf6b53, .uuid-62996da1-6c40-44b2-9d86-203a31ba595b {
        fill: none;
        stroke-miterlimit: 133.33;
        stroke-width: 6px;
      }

      .uuid-6f2fed90-299f-4f08-9450-e6ce82d80e1f, .uuid-deed4b06-ee55-41a4-b0b7-1adde8bf6b53 {
        stroke-linecap: round;
      }

      .uuid-6f2fed90-299f-4f08-9450-e6ce82d80e1f, .uuid-62996da1-6c40-44b2-9d86-203a31ba595b, .uuid-214b7d39-f36e-420a-994c-f01421bf886a {
        stroke: #b5b5b6;
      }

      .uuid-7d9bbe2f-1c73-4740-983b-0536e526d6bd {
        opacity: .51;
      }

      .uuid-155ee6de-0c81-40f5-8dfc-f712f57392cb, .uuid-deed4b06-ee55-41a4-b0b7-1adde8bf6b53 {
        stroke: #4e95d0;
      }

      .uuid-cd967b96-5194-4725-9789-5658cb523ba9 {
        fill: #b5b5b6;
        stroke-width: 0px;
      }

      .uuid-214b7d39-f36e-420a-994c-f01421bf886a {
        fill: #163b64;
        stroke-miterlimit: 10;
        stroke-width: 8px;
      }

      .uuid-169256e5-c56b-459f-819f-d38d31d7d335 {
        opacity: .46;
      }

      .uuid-d05d58d1-a152-44c7-8cb8-baa3696c90a7 {
        fill: #4e95d0;
        stroke: #231f20;
        stroke-linejoin: round;
        stroke-width: 4px;
      }
    </style>
  </defs>
  <circle class="uuid-214b7d39-f36e-420a-994c-f01421bf886a" cx="250.5" cy="250.5" r="246.5"/>
  <g class="uuid-169256e5-c56b-459f-819f-d38d31d7d335">
    <path class="uuid-cd967b96-5194-4725-9789-5658cb523ba9" d="m134.32,187.95l-16.86,32.13,16.86,32.13h12.19v23.82h-41.9v-23.82h1.84l-10.68-20.3h-10.35v20.3h7.01v23.82h-41.9v-23.82h7.01v-64.27h-7.01v-23.82h41.9v23.82h-7.01v20.3h10.35l10.68-20.3h-1.84v-23.82h41.9v23.82h-12.19Z"/>
    <path class="uuid-cd967b96-5194-4725-9789-5658cb523ba9" d="m243.82,252.21h7.01v23.82h-34.89v-40.77l-4.34-3.36h-16.69v44.12h-34.89v-23.82h7.01v-64.27h-7.01v-23.82h70.78l12.85,12.31v37.57l-6.34,6.08,6.34,6.07.17,26.06Zm-27.88-61.07l-4.34-3.36h-16.69v20.3h16.69l4.34-3.36v-13.59Z"/>
    <path class="uuid-cd967b96-5194-4725-9789-5658cb523ba9" d="m355,252.21v23.82h-41.9v-23.82h7.01l-1.84-10.07h-17.19l-1.84,10.07h7.01v23.82h-41.9v-23.82h7.01l13.69-64.27h-7.01v-23.82h63.27v23.82h-7.01l13.69,64.27h7.01Zm-39.56-25.26l-5.84-32.29-5.84,32.29h11.68Z"/>
    <path class="uuid-cd967b96-5194-4725-9789-5658cb523ba9" d="m451.98,187.95l-16.86,32.13,16.86,32.13h12.19v23.82h-41.9v-23.82h1.84l-10.68-20.3h-10.35v20.3h7.01v23.82h-41.9v-23.82h7.01v-64.27h-7.01v-23.82h41.9v23.82h-7.01v20.3h10.35l10.68-20.3h-1.84v-23.82h41.9v23.82h-12.19Z"/>
  </g>
  <g>
    <path class="uuid-d05d58d1-a152-44c7-8cb8-baa3696c90a7" d="m127.81,182.3l-16.86,32.13,16.86,32.13h12.19v23.82h-41.9v-23.82h1.84l-10.68-20.3h-10.35v20.3h7.01v23.82h-41.9v-23.82h7.01v-64.27h-7.01v-23.82h41.9v23.82h-7.01v20.3h10.35l10.68-20.3h-1.84v-23.82h41.9v23.82h-12.19Z"/>
    <path class="uuid-d05d58d1-a152-44c7-8cb8-baa3696c90a7" d="m237.31,246.57h7.01v23.82h-34.89v-40.77l-4.34-3.36h-16.69v44.12h-34.89v-23.82h7.01v-64.27h-7.01v-23.82h70.78l12.85,12.31v37.57l-6.34,6.08,6.34,6.07.17,26.06Zm-27.88-61.07l-4.34-3.36h-16.69v20.3h16.69l4.34-3.36v-13.59Z"/>
    <path class="uuid-d05d58d1-a152-44c7-8cb8-baa3696c90a7" d="m348.49,246.57v23.82h-41.9v-23.82h7.01l-1.84-10.07h-17.19l-1.84,10.07h7.01v23.82h-41.9v-23.82h7.01l13.69-64.27h-7.01v-23.82h63.27v23.82h-7.01l13.69,64.27h7.01Zm-39.56-25.26l-5.84-32.29-5.84,32.29h11.68Z"/>
    <path class="uuid-d05d58d1-a152-44c7-8cb8-baa3696c90a7" d="m445.47,182.3l-16.86,32.13,16.86,32.13h12.19v23.82h-41.9v-23.82h1.84l-10.68-20.3h-10.35v20.3h7.01v23.82h-41.9v-23.82h7.01v-64.27h-7.01v-23.82h41.9v23.82h-7.01v20.3h10.35l10.68-20.3h-1.84v-23.82h41.9v23.82h-12.19Z"/>
  </g>
  <g class="uuid-7d9bbe2f-1c73-4740-983b-0536e526d6bd">
    <path class="uuid-62996da1-6c40-44b2-9d86-203a31ba595b" d="m191.3,376.2c0-28.53,0-42.79,8.86-51.65,8.86-8.86,23.12-8.86,51.65-8.86s42.79,0,51.65,8.86c8.86,8.86,8.86,23.12,8.86,51.65s0,42.79-8.86,51.65c-8.86,8.86-23.13,8.86-51.65,8.86s-42.79,0-51.65-8.86c-8.86-8.86-8.86-23.13-8.86-51.65Z"/>
    <path class="uuid-6f2fed90-299f-4f08-9450-e6ce82d80e1f" d="m282.07,394.35h-30.26"/>
    <path class="uuid-6f2fed90-299f-4f08-9450-e6ce82d80e1f" d="m221.56,364.1l1.42,1.18c7.76,6.46,11.63,9.69,11.63,13.95s-3.88,7.48-11.63,13.95l-1.42,1.18"/>
  </g>
  <g>
    <path class="uuid-155ee6de-0c81-40f5-8dfc-f712f57392cb" d="m189.17,373.17c0-28.53,0-42.79,8.86-51.65,8.86-8.86,23.12-8.86,51.65-8.86s42.79,0,51.65,8.86c8.86,8.86,8.86,23.12,8.86,51.65s0,42.79-8.86,51.65c-8.86,8.86-23.13,8.86-51.65,8.86s-42.79,0-51.65-8.86c-8.86-8.86-8.86-23.13-8.86-51.65Z"/>
    <path class="uuid-deed4b06-ee55-41a4-b0b7-1adde8bf6b53" d="m279.94,391.33h-30.26"/>
    <path class="uuid-deed4b06-ee55-41a4-b0b7-1adde8bf6b53" d="m219.43,361.07l1.42,1.18c7.76,6.46,11.63,9.69,11.63,13.95s-3.88,7.48-11.63,13.95l-1.42,1.18"/>
  </g>
</svg>